<svg width="1440" height="299" viewBox="0 0 1440 299" fill="none" xmlns="http://www.w3.org/2000/svg">
<rect width="1443" height="295.002" transform="translate(-3 4)" fill="white"/>
<path d="M-3 94.002L-3.40359 92.0431L-5 92.372V94.002V299.002V301.002H-3H1440H1442V299.002V94.002V92.3709L1440.4 92.0428L1440 94.002C1440.4 92.0428 1440.4 92.0425 1440.4 92.0418L1440.38 92.0386L1440.32 92.0262L1440.08 91.9768C1439.87 91.9332 1439.55 91.8682 1439.13 91.7825C1438.28 91.611 1437.03 91.3567 1435.38 91.0251C1432.08 90.3619 1427.2 89.3895 1420.89 88.1522C1408.28 85.6777 1389.95 82.1436 1367.05 77.9044C1321.26 69.4262 1257.23 58.127 1184.26 46.8429C1038.35 24.2792 856.602 1.75832 713.497 2.00196C572.331 2.24229 393.081 24.7631 249.188 47.2059C177.228 58.4295 114.084 69.638 68.9297 78.0407C46.3522 82.2421 28.2714 85.7422 15.8338 88.1922C9.61498 89.4172 4.80693 90.3796 1.55294 91.036C-0.0740588 91.3641 -1.31254 91.6158 -2.1446 91.7855C-2.56063 91.8703 -2.87505 91.9346 -3.08563 91.9778L-3.32333 92.0266L-3.38325 92.0389L-3.39838 92.042C-3.40181 92.0427 -3.40359 92.0431 -3 94.002Z" stroke="black" stroke-width="4"/>
<path d="M1434.5 98.6607V290.5H5.5V98.6599C5.51079 98.6578 5.52165 98.6557 5.53258 98.6535C6.35598 98.4929 7.58264 98.2545 9.19481 97.9435C12.4191 97.3215 17.1854 96.4089 23.3515 95.2473C35.6837 92.9239 53.6149 89.604 76.0073 85.6185C120.793 77.6476 183.421 67.0148 254.793 56.3679C397.557 35.0711 575.226 13.7295 715.041 13.5019C856.776 13.2711 1036.93 34.6125 1181.69 56.0241C1254.06 66.7283 1317.57 77.4471 1362.98 85.4897C1385.69 89.511 1403.88 92.8631 1416.38 95.2098C1422.63 96.3831 1427.47 97.3051 1430.74 97.9336C1432.37 98.2479 1433.62 98.4888 1434.45 98.6511C1434.47 98.6543 1434.48 98.6575 1434.5 98.6607Z" fill="url(#paint0_linear_39_4)" stroke="black" stroke-width="3"/>
<defs>
<linearGradient id="paint0_linear_39_4" x1="-23" y1="183" x2="1498.5" y2="183" gradientUnits="userSpaceOnUse">
<stop stop-color="#D9D9D9"/>
<stop offset="0.276442" stop-color="#848484" stop-opacity="0.8"/>
<stop offset="0.4875" stop-color="#1B1414" stop-opacity="0.09"/>
<stop offset="0.670677" stop-color="#848484" stop-opacity="0.8"/>
<stop offset="1" stop-color="#D9D9D9"/>
</linearGradient>
</defs>
</svg>
